HIERARCHY
ROOT Hips
{
	OFFSET 0.000000 0.000000 0.000000
	CHANNELS 6 Xposition Yposition Zposition Yrotation Xrotation Zrotation
	JOINT Chest
	{
		OFFSET 0.000000 -0.009281 11.569106
		CHANNELS 3 Yrotation Xrotation Zrotation
		JOINT Chest2
		{
			OFFSET -0.000000 0.016865 9.269641
			CHANNELS 3 Yrotation Xrotation Zrotation
			JOINT Chest3
			{
				OFFSET -0.000000 0.000001 8.374491
				CHANNELS 3 Yrotation Xrotation Zrotation
				JOINT Chest4
				{
					OFFSET -0.000000 0.000001 8.374493
					CHANNELS 3 Yrotation Xrotation Zrotation
					JOINT Neck
					{
						OFFSET -0.000000 0.000002 12.152554
						CHANNELS 3 Yrotation Xrotation Zrotation
						JOINT Head
						{
							OFFSET -0.000000 0.040101 7.802319
							CHANNELS 3 Yrotation Xrotation Zrotation
							End Site
							{
								OFFSET -0.000000 0.020947 14.853096
							}
						}
					}
					JOINT RightCollar
					{
						OFFSET 2.894404 0.000001 6.791374
						CHANNELS 3 Yrotation Xrotation Zrotation
						JOINT RightShoulder
						{
							OFFSET 13.574684 0.000001 0.000000
							CHANNELS 3 Yrotation Xrotation Zrotation
							JOINT RightElbow
							{
								OFFSET 23.923903 0.000002 0.000000
								CHANNELS 3 Yrotation Xrotation Zrotation
								JOINT RightWrist
								{
									OFFSET 19.846718 0.012767 0.000000
									CHANNELS 3 Yrotation Xrotation Zrotation
									End Site
									{
										OFFSET 14.973145 0.000001 0.000000
									}
								}
							}
						}
					}
					JOINT LeftCollar
					{
						OFFSET -2.894404 0.000001 6.791374
						CHANNELS 3 Yrotation Xrotation Zrotation
						JOINT LeftShoulder
						{
							OFFSET -13.574684 -0.000001 0.000000
							CHANNELS 3 Yrotation Xrotation Zrotation
							JOINT LeftElbow
							{
								OFFSET -23.923903 -0.000002 0.000000
								CHANNELS 3 Yrotation Xrotation Zrotation
								JOINT LeftWrist
								{
									OFFSET -19.846718 0.012763 0.000000
									CHANNELS 3 Yrotation Xrotation Zrotation
									End Site
									{
										OFFSET -14.973145 -0.000001 0.000000
									}
								}
							}
						}
					}
				}
			}
		}
	}
	JOINT RightHip
	{
		OFFSET 9.469263 0.004643 0.045487
		CHANNELS 3 Yrotation Xrotation Zrotation
		JOINT RightKnee
		{
			OFFSET 0.000000 0.002661 -40.478676
			CHANNELS 3 Yrotation Xrotation Zrotation
			JOINT RightAnkle
			{
				OFFSET 0.000000 0.049106 -35.224068
				CHANNELS 3 Yrotation Xrotation Zrotation
				JOINT RightToe
				{
					OFFSET -0.000001 12.539529 -6.151390
					CHANNELS 3 Yrotation Xrotation Zrotation
					End Site
					{
						OFFSET -0.000001 5.044994 -1.291870
					}
				}
			}
		}
	}
	JOINT LeftHip
	{
		OFFSET -9.469263 0.004641 0.045487
		CHANNELS 3 Yrotation Xrotation Zrotation
		JOINT LeftKnee
		{
			OFFSET 0.000000 0.002661 -40.478676
			CHANNELS 3 Yrotation Xrotation Zrotation
			JOINT LeftAnkle
			{
				OFFSET 0.000000 0.049106 -35.224068
				CHANNELS 3 Yrotation Xrotation Zrotation
				JOINT LeftToe
				{
					OFFSET -0.000001 12.539529 -6.151390
					CHANNELS 3 Yrotation Xrotation Zrotation
					End Site
					{
						OFFSET -0.000001 5.044994 -1.291870
					}
				}
			}
		}
	}
}
MOTION
Frames: 12
Frame Time: 0.016667
13.771596 12.947124 82.573776 -2.973656 -5.450013 -130.052963 3.622561 -3.569988 2.182516 1.573912 -1.581719 1.055006 1.573912 -1.581719 1.055008 1.183094 -1.183585 0.795284 5.214643 -20.974143 -13.604261 5.526751 -2.879394 -23.165558 8.809993 1.173109 -14.083941 84.722971 37.644236 27.840461 42.475317 42.352692 46.650028 37.300957 21.462225 7.079216 -9.946985 -9.367260 -19.119911 -66.314778 3.754309 -42.949818 2.273700 -3.090116 -24.487958 54.786139 20.110804 -69.897007 -0.132822 5.644247 -5.792912 6.694484 -12.151918 -20.617150 0.220860 1.792698 0.060413 -0.598198 0.124741 -0.279276 -1.327722 -10.691742 5.465714 -3.585929 -7.540494 15.097536 6.751022 12.438518 10.432060 -1.162784 0.432087 0.091319 
14.002697 12.469119 82.555267 -3.039028 -5.730846 -130.703265 3.754357 -3.605939 1.891511 1.657561 -1.596756 0.945298 1.657562 -1.596757 0.945301 1.245565 -1.195018 0.713262 5.030345 -20.999374 -13.472009 5.235239 -2.943089 -22.979210 8.610316 1.423993 -14.204676 84.495915 37.968574 26.990322 41.385892 43.530739 45.657697 37.187634 21.605652 7.145277 -10.035908 -9.563678 -19.176096 -66.584973 2.847153 -42.607622 2.917238 -3.850882 -22.562092 55.204058 19.668634 -70.103907 0.131776 5.189986 -5.230324 6.892177 -12.365658 -20.488761 0.097242 2.254225 0.167212 -0.473087 0.104714 -0.406187 -0.992899 -10.627787 5.107512 -3.811882 -9.014003 15.934683 6.531771 13.119295 10.509818 -1.140818 0.725732 0.120488 
14.241650 11.950453 82.538467 -3.170981 -5.963020 -131.494119 3.822243 -3.673749 1.678781 1.721949 -1.618334 0.862586 1.721949 -1.618333 0.862588 1.293663 -1.211334 0.651465 4.856334 -21.030091 -13.342513 4.962191 -3.015458 -22.794518 8.396463 1.652461 -14.353777 84.192395 38.166028 26.103308 40.298960 44.684300 44.664509 36.931127 21.758643 7.262183 -10.244568 -9.563468 -19.188752 -66.712937 1.983171 -42.159838 3.146679 -4.654262 -20.586025 55.791912 19.106201 -69.771660 0.339914 4.741628 -4.774240 7.054520 -12.639722 -20.263744 -0.114665 2.736897 0.427942 -0.346611 0.094759 -0.568443 -0.730027 -10.599812 4.999261 -4.020216 -10.524650 16.812104 6.044006 13.618818 10.351074 -1.039503 1.164597 0.171498 
14.506270 11.395556 82.532372 -3.357981 -6.128149 -132.422847 3.821338 -3.743891 1.553294 1.754958 -1.645602 0.798188 1.754958 -1.645602 0.798177 1.318281 -1.231924 0.603325 4.690328 -21.079921 -13.208806 4.707316 -3.121404 -22.599030 8.254500 1.683985 -14.436682 83.986595 38.403463 25.414079 39.215091 45.780630 43.616215 36.835975 21.879435 7.319006 -10.518438 -9.405167 -19.092532 -66.565337 0.965875 -41.634528 3.104820 -5.382601 -18.549474 56.251881 18.203475 -69.251261 0.468060 4.240945 -4.521622 7.116947 -12.912030 -19.626386 -0.351787 3.235989 0.618331 -0.231910 0.077999 -0.726354 -0.484140 -10.520276 5.065218 -4.206882 -12.254108 17.555637 5.257717 13.924967 9.917538 -0.882849 1.780534 0.228237 
14.811470 10.800533 82.542549 -3.618000 -6.244006 -133.436720 3.750401 -3.798815 1.468526 1.754992 -1.676462 0.747928 1.754992 -1.676462 0.747926 1.318205 -1.255212 0.565720 4.517827 -21.166669 -13.061664 4.449502 -3.295143 -22.379622 8.212022 1.637568 -14.429760 83.744683 38.585695 24.763677 38.014289 46.943784 42.491000 36.844093 21.933664 7.268589 -10.847473 -9.149602 -18.980430 -66.272342 -0.224913 -40.946308 3.198694 -5.891558 -16.557441 56.459358 16.962959 -69.170139 0.528390 3.649480 -4.483582 7.042173 -13.133608 -18.610807 -0.533333 3.719139 0.806717 -0.187002 0.049682 -0.935302 -0.273243 -10.383048 5.041179 -4.429770 -14.195160 17.950823 4.305437 13.880356 9.496806 -0.662448 2.641635 0.292915 
15.143946 10.223171 82.565971 -3.910848 -6.283669 -134.508076 3.617445 -3.773445 1.372840 1.730135 -1.695493 0.687307 1.730136 -1.695493 0.687300 1.299416 -1.269689 0.520247 4.304956 -21.315659 -12.868900 4.140007 -3.585751 -22.086783 8.117028 1.706722 -14.439575 83.373292 38.514747 23.908973 36.481509 48.218899 41.041207 36.755464 21.988489 7.199499 -11.077302 -9.216288 -18.881623 -66.245260 -1.237258 -40.378927 3.542591 -6.541264 -14.715929 57.032284 15.803342 -69.333469 0.465390 3.057656 -4.522476 6.922118 -13.322524 -17.430098 -0.653710 4.181519 0.973780 -0.199614 0.012957 -1.146567 -0.060924 -10.120677 4.692296 -4.885165 -16.279744 18.091073 3.392250 13.440199 9.339108 -0.421486 3.705337 0.343384 
15.510628 9.676892 82.601913 -4.210584 -6.322596 -135.637926 3.456121 -3.724784 1.308034 1.690679 -1.704427 0.629926 1.690679 -1.704427 0.629934 1.269674 -1.276591 0.477135 4.079919 -21.511961 -12.661724 3.818711 -3.963960 -21.769302 7.946590 1.911334 -14.557611 82.884899 38.192300 22.769136 34.726239 49.549293 39.331982 36.477998 22.083643 7.166389 -11.140701 -9.480860 -18.798701 -66.500122 -1.880426 -40.003496 3.787141 -7.723574 -12.915736 57.701541 15.060839 -69.058130 0.357498 2.443721 -4.485227 6.792764 -13.434508 -16.279630 -0.784390 4.571719 1.108070 -0.206626 -0.014891 -1.303790 0.229685 -9.640167 4.063783 -5.567399 -18.751344 18.586507 2.367155 12.796435 8.917044 -1.025351 6.413242 0.331875 
15.852145 9.133859 82.634781 -4.470286 -6.397755 -136.751479 3.325888 -3.688292 1.210598 1.661718 -1.704164 0.569486 1.661717 -1.704165 0.569488 1.247786 -1.276588 0.431722 3.819366 -21.718321 -12.439215 3.438643 -4.364367 -21.433484 7.737991 1.955715 -14.682824 82.677268 37.980199 21.828192 32.788187 50.619413 37.431189 36.087629 22.048832 7.134460 -11.287835 -9.428198 -18.586196 -66.800507 -2.495645 -39.359276 3.745224 -9.314355 -11.216968 58.504819 14.201757 -68.243432 0.321806 1.824751 -4.378790 6.629777 -13.468441 -15.353312 -0.960840 4.883770 1.309036 -0.180017 -0.023496 -1.400113 0.597806 -8.965110 3.288936 -6.481877 -21.649502 19.366873 1.293277 12.005063 8.230984 -1.450871 9.504368 0.298680 
16.178650 8.609456 82.655991 -4.662895 -6.483590 -137.880141 3.244508 -3.655930 1.157220 1.645358 -1.701231 0.523752 1.645358 -1.701231 0.523755 1.235388 -1.274525 0.397371 3.531825 -21.899941 -12.232918 3.002034 -4.723976 -21.134994 7.620491 1.763238 -14.726354 82.619546 37.998897 21.153941 31.077292 51.511367 35.735888 35.885110 21.932036 7.068502 -11.385572 -9.337537 -18.351765 -66.922917 -3.407875 -38.717976 3.656664 -10.903427 -9.655576 59.363865 12.905266 -67.287192 0.321337 1.264230 -4.134467 6.492337 -13.488279 -14.651873 -1.125688 5.195671 1.608191 -0.171911 -0.054407 -1.507909 1.106512 -7.975228 2.658576 -7.515141 -24.965825 20.031864 0.101333 10.825924 7.427750 -1.678955 13.144641 0.261049 
16.482784 8.079579 82.658234 -4.828704 -6.588139 -138.965513 3.201090 -3.656310 1.066501 1.648917 -1.695658 0.475389 1.648916 -1.695658 0.475390 1.237917 -1.270473 0.361094 3.189206 -22.044033 -12.011658 2.465177 -5.020759 -20.825621 7.589844 1.454387 -14.642693 82.552241 38.117042 20.670058 29.614095 52.428081 34.299246 35.871942 21.831878 6.965900 -11.523085 -9.109991 -18.110329 -66.865209 -4.765452 -37.924134 3.772842 -12.113597 -8.386240 60.235329 11.108291 -66.701790 0.321375 0.794485 -3.791796 6.429275 -13.662376 -14.372451 -1.263666 5.575326 2.116541 -0.181154 -0.058166 -1.577690 1.663718 -6.783477 2.113252 -8.563850 -28.497836 20.278912 -1.039159 9.124388 6.849715 -1.808175 17.293511 0.219399 
16.748642 7.565040 82.635216 -4.934818 -6.706043 -140.009999 3.186980 -3.644710 0.932163 1.670283 -1.686366 0.411382 1.670283 -1.686367 0.411381 1.253758 -1.263663 0.313131 2.803686 -22.156343 -11.757088 1.855545 -5.261937 -20.468426 7.574578 1.321238 -14.549964 82.337084 38.213006 20.115401 28.071579 53.359927 32.796738 35.874162 21.784024 6.885015 -11.590192 -9.236101 -17.989275 -66.821674 -6.017941 -37.333104 4.004583 -13.105425 -7.471681 61.356334 9.209203 -66.271700 0.341765 0.456251 -3.460027 6.425372 -14.011402 -14.427304 -1.352227 6.047411 2.875857 -0.222269 -0.059286 -1.638479 2.268134 -5.415438 1.624979 -9.580583 -32.093399 19.872061 -1.993811 6.893008 6.618278 -1.879097 21.841738 0.165014 
17.001575 7.103736 82.578888 -5.014115 -6.795095 -141.058187 3.129031 -3.623847 0.814972 1.703383 -1.683902 0.335992 1.703382 -1.683902 0.335985 1.278371 -1.262001 0.256668 2.420585 -22.231480 -11.482033 1.250303 -5.431902 -20.074358 7.490121 1.422037 -14.594258 82.029500 38.142276 19.426475 26.355706 54.308849 31.126354 35.687312 21.716563 6.830328 -11.526736 -9.474168 -17.883916 -66.912775 -6.882482 -36.986379 3.950859 -14.510967 -6.734567 62.335585 7.633660 -65.245136 0.311463 0.192442 -3.150580 6.440183 -14.362571 -14.344343 -1.413900 6.467387 3.516877 -0.287622 -0.042877 -1.716540 2.828683 -3.849606 1.186249 -10.486786 -35.816614 19.070421 -2.607797 4.363348 6.634485 -2.195036 26.579775 0.028460 
